<svg width="39" height="39" viewBox="0 0 39 39" fill="none" xmlns="http://www.w3.org/2000/svg">
<path d="M19.1101 11.1548C21.1609 11.1548 22.8233 9.4924 22.8233 7.44168C22.8233 5.39096 21.1609 3.72852 19.1101 3.72852C17.0594 3.72852 15.397 5.39096 15.397 7.44168C15.397 9.4924 17.0594 11.1548 19.1101 11.1548Z" fill="#333333"/>
<path d="M19.1101 23.2132C21.1609 23.2132 22.8233 21.5508 22.8233 19.5C22.8233 17.4493 21.1609 15.7869 19.1101 15.7869C17.0594 15.7869 15.397 17.4493 15.397 19.5C15.397 21.5508 17.0594 23.2132 19.1101 23.2132Z" fill="#333333"/>
<path d="M19.1101 35.2715C21.1609 35.2715 22.8233 33.609 22.8233 31.5583C22.8233 29.5076 21.1609 27.8452 19.1101 27.8452C17.0594 27.8452 15.397 29.5076 15.397 31.5583C15.397 33.609 17.0594 35.2715 19.1101 35.2715Z" fill="#333333"/>
</svg>
