<svg width="25" height="25" viewBox="0 0 25 25" fill="none" xmlns="http://www.w3.org/2000/svg">
<path d="M24.0385 18.1034H23.0769L21.3135 9.14655C20.749 6.28017 18.2567 4.10086 15.1615 3.58017C15.3048 3.27328 15.3846 2.93879 15.3846 2.58621C15.3846 1.15776 14.0933 0 12.5 0C10.9067 0 9.61538 1.15776 9.61538 2.58621C9.61538 2.93879 9.69519 3.27328 9.8375 3.58017C6.74327 4.10086 4.25 6.28017 3.68654 9.14655L1.92308 18.1034H0.961538L0 21.5517H25L24.0385 18.1034ZM12.5 1.72414C13.0298 1.72414 13.4615 2.11121 13.4615 2.58621C13.4615 3.06121 13.0298 3.44828 12.5 3.44828C11.9702 3.44828 11.5385 3.06121 11.5385 2.58621C11.5385 2.11121 11.9702 1.72414 12.5 1.72414ZM10.5769 22.4138H14.4231V23.2759C14.4231 24.2284 13.5625 25 12.5 25C11.4375 25 10.5769 24.2284 10.5769 23.2759V22.4138Z" fill="#111918"/>
</svg>
