<svg width="39" height="39" xmlns="http://www.w3.org/2000/svg"><g clip-path="url(#a)"><path d="M37.083 18.233h-4.328v-1.266c0-.38-.247-.634-.618-.634v-1.266c.37 0 .618-.254.618-.634 0-2.47-1.917-4.433-4.328-4.433-2.412 0-4.329 1.963-4.329 4.433 0 .38.248.634.619.634v1.266c-.371 0-.619.254-.619.634v1.266H16.74v-3.8a5.69 5.69 0 0 0-2.35-4.623c-.247-.127-.556-.127-.741 0a4.287 4.287 0 0 1-5.009 0c-.247-.127-.556-.127-.742 0a5.69 5.69 0 0 0-2.35 4.623v3.8H1.22c-.37 0-.618.254-.618.634v3.8c0 .38.247.633.618.633v13.3c0 1.076.804 1.9 1.855 1.9h32.153c1.051 0 1.855-.824 1.855-1.9V23.3c.371 0 .618-.253.618-.633v-3.8c0-.38-.247-.634-.618-.634Zm-8.656-6.966c1.484 0 2.72 1.076 3.03 2.533h-6.06c.309-1.457 1.546-2.533 3.03-2.533Zm-2.474 3.8H30.9v1.266h-4.947v-1.266Zm-.618 2.533h6.183v.633h-6.183V17.6Zm-14.221-5.447 1.05 1.14-1.05 1.837-1.052-1.837 1.052-1.14Zm-4.329 2.28c0-1.266.557-2.47 1.484-3.356.48.298.998.513 1.533.646l-.976 1c-.248.19-.248.507-.124.76l1.855 3.167a.646.646 0 0 0 1.113 0l1.855-3.167a.686.686 0 0 0-.124-.76l-.976-1a5.345 5.345 0 0 0 1.533-.646c.927.886 1.484 2.09 1.484 3.356v3.8H6.785v-3.8ZM1.84 19.5H36.465v2.533H1.839V19.5Zm34.008 12.667h-3.71c-.372 0-.619.253-.619.633s.247.633.618.633h3.71V34.7h-3.71c-.37 0-.618.253-.618.633s.247.634.618.634h3.71v.633c0 .38-.247.633-.618.633H3.075c-.37 0-.618-.253-.618-.633v-.633h3.71c.371 0 .618-.254.618-.634s-.247-.633-.618-.633h-3.71v-1.267h3.71c.371 0 .618-.253.618-.633s-.247-.633-.618-.633h-3.71V23.3h33.39v8.867ZM11.114 9.367c2.41 0 4.328-1.964 4.328-4.434S13.525.5 11.113.5c-2.41 0-4.328 1.963-4.328 4.433 0 2.47 1.917 4.434 4.329 4.434Zm0-7.6c1.73 0 3.091 1.393 3.091 3.166 0 1.774-1.36 3.167-3.091 3.167-1.732 0-3.092-1.393-3.092-3.167 0-1.773 1.36-3.166 3.091-3.166Z"/><path d="M18.534 35.967c3.091 0 5.565-2.534 5.565-5.7 0-3.167-2.474-5.7-5.565-5.7-3.092 0-5.565 2.533-5.565 5.7 0 3.166 2.473 5.7 5.565 5.7Zm0-10.134c2.411 0 4.328 1.964 4.328 4.434S20.945 34.7 18.534 34.7c-2.412 0-4.329-1.963-4.329-4.433 0-2.47 1.917-4.434 4.329-4.434Z"/><path d="M18.533 33.433c.371 0 .619-.253.619-.633s-.248-.633-.619-.633c-1.05 0-1.855-.824-1.855-1.9 0-.38-.247-.634-.618-.634-.37 0-.618.254-.618.634 0 1.773 1.36 3.166 3.091 3.166ZM18.533 28.367c1.052 0 1.855.823 1.855 1.9 0 .38.248.633.619.633.37 0 .618-.253.618-.633 0-1.774-1.36-3.167-3.092-3.167-.37 0-.618.253-.618.633s.247.634.618.634Z"/></g><defs><clipPath id="a"><path transform="translate(.602 .5)" d="M0 0h37.721v38H0z"/></clipPath></defs></svg>