<svg width="17" height="16" viewBox="0 0 17 16" fill="none" xmlns="http://www.w3.org/2000/svg">
<path d="M0.854632 0.146143C0.808144 0.0996553 0.752954 0.0627792 0.692215 0.0376201C0.631476 0.012461 0.566375 -0.000488281 0.500632 -0.000488281C0.434888 -0.000488282 0.369788 0.012461 0.309048 0.0376201C0.248309 0.0627792 0.193119 0.0996553 0.146631 0.146143C0.100144 0.192631 0.0632674 0.24782 0.0381083 0.30856C0.0129493 0.369299 -4.8983e-10 0.434399 0 0.500143C4.8983e-10 0.565887 0.0129493 0.630987 0.0381083 0.691727C0.0632674 0.752466 0.100144 0.807655 0.146631 0.854143L3.64663 4.35214C1.9132 5.53447 0.706439 7.34355 0.280632 9.39814C0.267237 9.46243 0.266634 9.52872 0.278859 9.59323C0.291083 9.65775 0.315895 9.71922 0.351878 9.77415C0.387861 9.82907 0.434309 9.87637 0.488572 9.91335C0.542835 9.95032 0.60385 9.97625 0.668132 9.98964C0.732414 10.003 0.798705 10.0036 0.863219 9.99142C0.927734 9.97919 0.989209 9.95438 1.04414 9.9184C1.09906 9.88241 1.14636 9.83597 1.18334 9.7817C1.22031 9.72744 1.24624 9.66643 1.25963 9.60214C1.45052 8.67863 1.82372 7.80248 2.35739 7.02498C2.89107 6.24748 3.57448 5.58426 4.36763 5.07414L5.95063 6.65614C5.53806 6.95207 5.19481 7.33422 4.9447 7.77607C4.69459 8.21793 4.54361 8.70891 4.50223 9.21495C4.46086 9.72099 4.53007 10.23 4.70508 10.7066C4.88009 11.1832 5.1567 11.616 5.51572 11.9751C5.87474 12.3341 6.30757 12.6107 6.78418 12.7857C7.2608 12.9607 7.76978 13.0299 8.27583 12.9885C8.78187 12.9472 9.27285 12.7962 9.7147 12.5461C10.1566 12.296 10.5387 11.9527 10.8346 11.5401L15.1476 15.8541C15.2415 15.948 15.3689 16.0008 15.5016 16.0008C15.6344 16.0008 15.7617 15.948 15.8556 15.8541C15.9495 15.7603 16.0023 15.6329 16.0023 15.5001C16.0023 15.3674 15.9495 15.24 15.8556 15.1461L0.855632 0.146143H0.854632ZM8.12463 6.00314L11.4876 9.36614C11.4538 8.48504 11.0886 7.64918 10.4651 7.02569C9.84159 6.40219 9.00574 6.03701 8.12463 6.00314ZM5.53063 3.41014L6.33363 4.21314C6.87802 4.07174 7.43818 4.00017 8.00063 4.00014C11.2066 4.00014 14.0576 6.32714 14.7406 9.60214C14.7677 9.7321 14.8453 9.84599 14.9563 9.91875C15.0673 9.99151 15.2027 10.0172 15.3326 9.99014C15.4626 9.96309 15.5765 9.88552 15.6492 9.7745C15.722 9.66348 15.7477 9.5281 15.7206 9.39814C14.9436 5.67314 11.6936 3.00014 8.00063 3.00014C7.14563 3.00014 6.31363 3.14314 5.53163 3.41014H5.53063Z" fill="#303233" fill-opacity="0.9"/>
</svg>
