<svg width="20" height="21" viewBox="0 0 20 21" fill="none" xmlns="http://www.w3.org/2000/svg">
<g clip-path="url(#clip0_649_1289)">
<path d="M12.8712 3.99786H3.57363C2.70121 3.99786 1.99263 4.70644 1.99263 5.57886V18.919C1.99263 19.7914 2.70121 20.5 3.57363 20.5H12.8712C13.7436 20.5 14.4522 19.7914 14.4522 18.919V5.57886C14.4481 4.70644 13.7395 3.99786 12.8712 3.99786ZM13.3422 18.9149C13.3422 19.1771 13.1292 19.39 12.8671 19.39H3.56953C3.3074 19.39 3.09441 19.1771 3.09441 18.9149V5.57886C3.09441 5.31673 3.3074 5.10374 3.56953 5.10374H12.8671C13.1292 5.10374 13.3422 5.31673 13.3422 5.57886V18.9149Z" fill="#3E5C76"/>
<path d="M16.4264 0.5H7.12881C6.2564 0.5 5.54782 1.20858 5.54782 2.081C5.54782 2.38818 5.79357 2.63393 6.10076 2.63393C6.40795 2.63393 6.6537 2.38818 6.6537 2.081C6.6537 1.81886 6.86668 1.60588 7.12881 1.60588H16.4264C16.6885 1.60588 16.9015 1.81886 16.9015 2.081V15.4212C16.9015 15.6833 16.6885 15.8963 16.4264 15.8963C16.1192 15.8963 15.8734 16.142 15.8734 16.4492C15.8734 16.7564 16.1192 17.0021 16.4264 17.0021C17.2988 17.0021 18.0074 16.2936 18.0074 15.4212V2.081C18.0074 1.20858 17.2988 0.5 16.4264 0.5Z" fill="#3E5C76"/>
</g>
<defs>
<clipPath id="clip0_649_1289">
<rect width="20" height="20" fill="white" transform="translate(0 0.5)"/>
</clipPath>
</defs>
</svg>
