<svg width="20" height="21" viewBox="0 0 20 21" fill="none" xmlns="http://www.w3.org/2000/svg">
<g clip-path="url(#clip0_649_1323)">
<path d="M13.7118 9.59154V5.91226H14.5575V2.10677H10.3975V0.5H5.60968V2.10677H1.44968V5.91226H2.29534V18.8087H9.12507C10.122 19.8503 11.5253 20.5 13.0776 20.5C16.0953 20.5 18.5503 18.0449 18.5503 15.0273C18.5503 12.2241 16.4318 9.90693 13.7118 9.59154ZM12.4433 9.59154C11.68 9.68004 10.9642 9.92605 10.3292 10.2964V5.91226H12.4433V9.59154ZM6.87817 1.7685H9.129V2.10677H6.87817V1.7685ZM2.71818 3.37526H13.289V4.64376H2.71818V3.37526V3.37526ZM3.56384 5.91226H5.67801V17.5402H3.56384V5.91226ZM6.9465 17.5402V5.91226H9.06067V11.3147C8.15767 12.291 7.6049 13.5957 7.6049 15.0273C7.6049 15.9326 7.82608 16.7872 8.21695 17.5402H6.9465ZM13.0776 19.2315C10.7594 19.2315 8.8734 17.3455 8.8734 15.0273C8.8734 12.709 10.7594 10.8231 13.0776 10.8231C15.3958 10.8231 17.2818 12.7091 17.2818 15.0273C17.2818 17.3455 15.3958 19.2315 13.0776 19.2315Z" fill="#E05959"/>
<path d="M14.4714 12.7366L13.0776 14.1304L11.6839 12.7366L10.7869 13.6335L12.1807 15.0273L10.7869 16.4211L11.6839 17.318L13.0776 15.9242L14.4714 17.318L15.3683 16.4211L13.9745 15.0273L15.3683 13.6335L14.4714 12.7366Z" fill="#E05959"/>
</g>
<defs>
<clipPath id="clip0_649_1323">
<rect width="20" height="20" fill="white" transform="translate(0 0.5)"/>
</clipPath>
</defs>
</svg>
