<svg width="20" height="20" viewBox="0 0 20 20" fill="none" xmlns="http://www.w3.org/2000/svg">
<path d="M15.8334 8.55126C15.8338 8.66953 15.8063 8.78639 15.753 8.89325C15.6996 9.00011 15.6217 9.09425 15.525 9.16876L10.525 12.9925C10.3759 13.109 10.1889 13.1726 9.99586 13.1726C9.80284 13.1726 9.6158 13.109 9.46669 12.9925L4.46669 9.03418C4.29651 8.8998 4.18949 8.70671 4.16918 8.49737C4.14886 8.28803 4.21691 8.0796 4.35836 7.91793C4.49981 7.75626 4.70307 7.65459 4.92342 7.63529C5.14378 7.61599 5.36318 7.68064 5.53336 7.81501L10 11.3538L14.4667 7.93376C14.589 7.83696 14.738 7.77546 14.8959 7.75656C15.0539 7.73765 15.2142 7.76213 15.358 7.82709C15.5018 7.89205 15.623 7.99478 15.7072 8.12311C15.7914 8.25145 15.8352 8.40003 15.8334 8.55126Z" fill="#303233"/>
</svg>
