<svg width="14" height="8" viewBox="0 0 14 8" fill="none" xmlns="http://www.w3.org/2000/svg">
<path d="M14.0013 1.66202C14.0018 1.81142 13.9688 1.95903 13.9048 2.09401C13.8407 2.22899 13.7473 2.34791 13.6313 2.44202L7.63125 7.27202C7.45232 7.41911 7.22788 7.49951 6.99625 7.49951C6.76463 7.49951 6.54018 7.41911 6.36125 7.27202L0.361252 2.27202C0.157036 2.10228 0.0286112 1.85837 0.0042315 1.59395C-0.0201482 1.32952 0.0615137 1.06624 0.231252 0.862024C0.400991 0.657807 0.644902 0.529383 0.909329 0.505003C1.17375 0.480624 1.43704 0.562285 1.64125 0.732024L7.00125 5.20202L12.3613 0.882024C12.508 0.759741 12.6868 0.682064 12.8763 0.658185C13.0659 0.634305 13.2583 0.665222 13.4308 0.747278C13.6034 0.829334 13.7488 0.959094 13.8499 1.1212C13.9509 1.28331 14.0035 1.47099 14.0013 1.66202Z" fill="#303233"/>
</svg>
