<svg width="30" height="30" viewBox="0 0 30 30" fill="none" xmlns="http://www.w3.org/2000/svg">
<path d="M13.7513 12.5H16.2513V18.75H13.7513V12.5ZM13.75 20H16.25V22.5H13.75V20Z" fill="#A93838"/>
<path d="M17.2102 5.24986C16.7752 4.43111 15.9277 3.92236 15.0002 3.92236C14.0727 3.92236 13.2252 4.43111 12.7902 5.25111L3.61768 22.5799C3.41414 22.9604 3.31332 23.3874 3.32515 23.8188C3.33699 24.2502 3.46108 24.6711 3.68518 25.0399C3.90605 25.4103 4.21973 25.7168 4.59524 25.929C4.97075 26.1412 5.39511 26.2518 5.82643 26.2499H24.1739C25.0589 26.2499 25.8602 25.7974 26.3164 25.0399C26.5402 24.6709 26.6641 24.2501 26.6759 23.8188C26.6877 23.3875 26.5871 22.9605 26.3839 22.5799L17.2102 5.24986ZM5.82643 23.7499L15.0002 6.42111L24.1802 23.7499H5.82643Z" fill="#A93838"/>
</svg>
