<svg width="40" height="40" viewBox="0 0 40 40" fill="none" xmlns="http://www.w3.org/2000/svg">
<path opacity="0.5" d="M19.9987 3.33301C16.7024 3.33301 13.48 4.31049 10.7392 6.14185C7.99838 7.97321 5.86217 10.5762 4.60071 13.6216C3.33925 16.6671 3.0092 20.0182 3.65228 23.2512C4.29537 26.4842 5.88272 29.4539 8.21359 31.7848C10.5445 34.1157 13.5142 35.703 16.7472 36.3461C19.9802 36.9892 23.3313 36.6591 26.3768 35.3977C29.4222 34.1362 32.0252 32 33.8565 29.2592C35.6879 26.5184 36.6654 23.296 36.6654 19.9997C36.6654 17.811 36.2343 15.6437 35.3967 13.6216C34.5591 11.5995 33.3315 9.76221 31.7838 8.21456C30.2362 6.66692 28.3989 5.43926 26.3768 4.60168C24.3547 3.7641 22.1874 3.33301 19.9987 3.33301V3.33301ZM19.9987 33.333C17.3616 33.333 14.7838 32.551 12.5911 31.0859C10.3984 29.6209 8.68948 27.5385 7.68031 25.1021C6.67114 22.6658 6.4071 19.9849 6.92157 17.3985C7.43604 14.8121 8.70591 12.4363 10.5706 10.5716C12.4353 8.70688 14.8111 7.43701 17.3975 6.92254C19.9839 6.40807 22.6648 6.67211 25.1012 7.68128C27.5375 8.69045 29.6199 10.3994 31.085 12.5921C32.55 14.7847 33.332 17.3626 33.332 19.9997C33.332 23.5359 31.9273 26.9273 29.4268 29.4278C26.9263 31.9283 23.5349 33.333 19.9987 33.333V33.333Z" fill="white"/>
<path d="M33.3333 19.9997H36.6667C36.6667 17.811 36.2356 15.6437 35.398 13.6216C34.5604 11.5995 33.3328 9.7622 31.7851 8.21456C30.2375 6.66692 28.4002 5.43926 26.3781 4.60168C24.356 3.7641 22.1887 3.33301 20 3.33301V6.66634C23.5362 6.66634 26.9276 8.0711 29.4281 10.5716C31.9286 13.0721 33.3333 16.4635 33.3333 19.9997Z" fill="white"/>
</svg>
