<svg width="38" height="37" xmlns="http://www.w3.org/2000/svg"><path d="M15.833 9a4.406 4.406 0 0 0-4.433 4.433V22.3h1.267v-8.867a3.136 3.136 0 0 1 3.166-3.166h2.534v3.166h1.266v-3.166h2.534a3.136 3.136 0 0 1 3.166 3.166V22.3H26.6v-8.867A4.406 4.406 0 0 0 22.167 9h-6.334ZM18.367 8.367h1.267A3.136 3.136 0 0 0 22.8 5.2V3.3A3.136 3.136 0 0 0 19.634.133h-1.267A3.136 3.136 0 0 0 15.2 3.3v1.9a3.136 3.136 0 0 0 3.167 3.167Zm-1.9-5.067c0-1.077.823-1.9 1.9-1.9h1.267c1.076 0 1.9.823 1.9 1.9v1.9c0 1.077-.824 1.9-1.9 1.9h-1.267c-1.077 0-1.9-.823-1.9-1.9V3.3Z"/><path d="M19.633 19.767h-1.266v1.266h1.266v-1.266ZM19.633 17.233h-1.266V18.5h1.266v-1.267ZM19.633 14.7h-1.266v1.267h1.266V14.7Z"/><path d="M30.4 33.7c0-1.077-.823-1.9-1.9-1.9h-1.267v-3.167c0-.38-.253-.633-.633-.633h-3.167V14.067h-1.266V28h-2.534v-5.067h-1.266V28h-2.534V14.067h-1.266V28H11.4c-.38 0-.633.253-.633.633V31.8H9.5c-1.077 0-1.9.823-1.9 1.9v1.9H0v1.267h38V35.6h-7.6v-1.9ZM8.867 35.6v-1.9c0-.38.253-.633.633-.633h11.4V31.8h-8.867v-2.533h13.934v3.166c0 .38.253.634.633.634h1.9c.38 0 .633.253.633.633v1.9H8.867ZM2.09 6.277l.887-.887-.824-.823H13.3V3.3H2.153l.824-.823-.887-.887-1.9 1.9a.612.612 0 0 0 0 .887l1.9 1.9ZM2.09 19.577l.887-.887-.824-.823H9.5V16.6H2.153l.824-.823-.887-.887-1.9 1.9a.612.612 0 0 0 0 .887l1.9 1.9ZM35.023 11.723l.887.887 1.9-1.9a.612.612 0 0 0 0-.887l-1.9-1.9-.887.887.824.823H28.5V10.9h7.347l-.824.823Z"/><path d="m35.91 23.123-.886.887.823.823h-9.88V26.1h9.88l-.824.823.887.887 1.9-1.9a.612.612 0 0 0 0-.887l-1.9-1.9ZM29.767 16.6H28.5v1.267h1.267V16.6ZM32.3 16.6h-1.267v1.267H32.3V16.6ZM34.834 16.6h-1.267v1.267h1.267V16.6ZM37.367 16.6H36.1v1.267h1.267V16.6ZM1.9 22.933H.633V24.2H1.9v-1.267ZM4.433 22.933H3.167V24.2h1.266v-1.267ZM6.967 22.933H5.7V24.2h1.267v-1.267ZM9.5 22.933H8.233V24.2H9.5v-1.267ZM1.9 9H.633v1.267H1.9V9ZM4.433 9H3.167v1.267h1.266V9ZM6.967 9H5.7v1.267h1.267V9ZM9.5 9H8.233v1.267H9.5V9Z"/></svg>