<svg width="15" height="16" viewBox="0 0 15 16" fill="none" xmlns="http://www.w3.org/2000/svg">
<path d="M3.74625 8C3.74625 10.0708 5.43075 11.7552 7.5015 11.7552C9.57225 11.7552 11.2568 10.0708 11.2568 8C11.2568 5.92925 9.57225 4.24475 7.5015 4.24475C5.43075 4.24475 3.74625 5.92925 3.74625 8ZM6.75 13.25H8.25V15.5H6.75V13.25ZM6.75 0.5H8.25V2.75H6.75V0.5ZM0 7.25H2.25V8.75H0V7.25ZM12.75 7.25H15V8.75H12.75V7.25ZM2.72775 13.8335L1.66725 12.773L3.258 11.1823L4.3185 12.2428L2.72775 13.8335ZM10.6815 3.758L12.273 2.1665L13.3335 3.227L11.742 4.8185L10.6815 3.758ZM3.258 4.81925L1.66725 3.22775L2.7285 2.16725L4.3185 3.75875L3.258 4.81925ZM13.3335 12.773L12.273 13.8335L10.6815 12.242L11.742 11.1815L13.3335 12.773Z" fill="#303233"/>
</svg>
