<svg width="33" height="28" viewBox="0 0 33 28" fill="none" xmlns="http://www.w3.org/2000/svg">
<path d="M28.9663 25.6132L32.1079 21.122C32.331 20.805 32.4892 20.447 32.5735 20.0686C32.6577 19.6902 32.6664 19.2989 32.599 18.9171C32.4618 18.1391 32.0281 17.4614 31.3828 17.0096L26.5493 13.6252C26.2323 13.4022 25.8743 13.244 25.4959 13.1597C25.1175 13.0754 24.7262 13.0667 24.3444 13.1341C23.5664 13.2713 22.8887 13.7051 22.4368 14.3504L19.962 17.8847C18.2878 17.4548 16.7051 16.7256 15.2903 15.7325C13.8703 14.7434 12.6403 13.5063 11.6593 12.0806L14.1341 8.54628C14.3572 8.22921 14.5154 7.8712 14.5997 7.49282C14.6839 7.11443 14.6926 6.72312 14.6252 6.34137C14.488 5.56333 14.0543 4.88565 13.409 4.43381L8.57848 1.04523C8.26086 0.821935 7.90222 0.663652 7.5232 0.579483C7.14417 0.495315 6.75224 0.486923 6.36996 0.55479C5.59191 0.69198 4.91422 1.12571 4.46237 1.77101L1.32305 6.25434C0.598873 7.28408 0.313545 8.58024 0.532287 9.82079C0.578438 10.0825 0.644206 10.3297 0.730854 10.5695C2.37904 15.2623 5.79508 19.6027 10.3424 22.7898C14.8854 25.974 20.1283 27.6965 25.1181 27.6485C26.6418 27.6312 28.0791 26.8713 28.9663 25.6132Z" fill="white"/>
</svg>
