<svg width="38" height="27" xmlns="http://www.w3.org/2000/svg"><path d="M26.424 14.582v-2.444c0-1.373-.825-1.75-3.498-2.712 1.129-2.575 1.424-3.426.46-4.379l-1.764-1.72a1.923 1.923 0 0 0-1.323-.538c-.328 0-.668 0-3.098 1.083C16.137 1.246 15.736.438 14.407.438h-2.494c-1.312 0-1.707.73-2.736 3.45-2.471-1.025-2.818-1.025-3.128-1.025-.487 0-.98.2-1.32.534L2.963 5.125c-.987.97-.647 1.878.513 4.347C.753 10.532 0 10.9 0 12.238v2.446c0 1.374.825 1.752 3.497 2.714-1.128 2.571-1.419 3.422-.46 4.373l1.757 1.719c.341.341.84.545 1.33.545.326 0 .665 0 3.097-1.085 1.066 2.626 1.465 3.436 2.796 3.436h2.496c1.31 0 1.707-.733 2.738-3.454 2.473 1.03 2.818 1.03 3.125 1.03.486 0 .98-.2 1.32-.533l1.778-1.74c.976-.969.638-1.877-.522-4.337 2.653-1.037 3.472-1.434 3.472-2.77Zm-6.127 7.212c-.236-.064-.9-.282-2.672-1.031l-.408-.173-1.627.659-.167.439c-.197.53-.757 2.023-1.053 2.549l-2.217-.002c-.303-.508-.892-1.969-1.131-2.56l-.17-.421-1.629-.656-.419.189c-1.755.795-2.399 1.02-2.6 1.08L4.641 20.34c.158-.578.788-2.01 1.044-2.588l.187-.423-.675-1.598-.443-.16c-.598-.213-2.078-.743-2.608-1.03v-2.162c.517-.29 1.961-.85 2.621-1.106l.425-.165.675-1.6-.206-.432c-.243-.51-.918-1.94-1.092-2.524l1.557-1.524c.236.063.901.279 2.677 1.028l.408.174 1.624-.658.165-.442c.197-.53.757-2.02 1.051-2.549h2.218c.302.51.891 1.971 1.13 2.562l.171.421 1.626.658.42-.19c1.758-.796 2.4-1.02 2.602-1.081l1.563 1.527c-.158.577-.79 2.008-1.044 2.588l-.187.425.677 1.602.443.157c.597.215 2.072.744 2.606 1.03l-.002 2.155c-.524.3-2.017.879-2.621 1.114l-.425.165-.67 1.602.203.43c.241.508.918 1.938 1.094 2.52l-1.56 1.528Z"/><path d="M13.213 9.548c-2.175 0-3.943 1.734-3.943 3.864s1.768 3.865 3.943 3.865 3.943-1.735 3.943-3.865-1.768-3.864-3.943-3.864Zm0 5.584c-.992 0-1.8-.773-1.8-1.72s.808-1.719 1.8-1.719 1.798.772 1.798 1.719c0 .947-.806 1.72-1.798 1.72ZM36.4 18.8c.517-1.18.653-1.569.212-2.005l-.81-.788a.87.87 0 0 0-.605-.246c-.15 0-.304 0-1.418.497-.488-1.202-.67-1.572-1.278-1.572h-1.14c-.6 0-.782.335-1.253 1.58-1.13-.47-1.288-.47-1.43-.47a.885.885 0 0 0-.604.245l-.81.791c-.45.444-.295.86.236 1.99-1.248.485-1.59.654-1.59 1.266v1.12c0 .628.377.802 1.6 1.242-.515 1.177-.65 1.566-.21 2.002l.804.786a.886.886 0 0 0 .61.248c.148 0 .304 0 1.418-.496.488 1.201.67 1.572 1.277 1.572h1.142c.6 0 .78-.334 1.254-1.58 1.13.471 1.288.471 1.43.471a.885.885 0 0 0 .603-.245l.813-.797c.446-.443.29-.858-.24-1.983 1.215-.475 1.59-.657 1.59-1.268v-1.12c0-.629-.377-.801-1.6-1.24Zm.62 2.293c-.24.137-.924.402-1.2.508l-.193.076-.308.732.095.198c.111.232.42.887.5 1.154l-.713.697c-.11-.03-.414-.128-1.224-.471l-.187-.08-.744.302-.076.2c-.09.243-.346.925-.482 1.167h-1.016c-.137-.234-.41-.902-.517-1.172l-.078-.193-.743-.302-.193.087c-.804.363-1.1.465-1.192.495l-.714-.7c.073-.264.36-.919.477-1.184l.085-.194-.308-.73-.202-.075c-.272-.098-.95-.341-1.194-.47v-.99c.238-.132.898-.39 1.198-.507l.194-.074.308-.734-.092-.197c-.114-.232-.421-.886-.501-1.153l.714-.697c.107.028.411.126 1.223.47l.188.08.743-.3.074-.202c.093-.243.347-.925.482-1.166h1.016c.137.234.408.903.517 1.174l.078.193.744.302.192-.087c.805-.366 1.1-.468 1.193-.495l.715.698c-.074.264-.361.918-.48 1.185l-.085.193.31.734.201.072c.275.099.951.341 1.194.471v.985Z"/><path d="M31.954 18.855c-.993 0-1.804.793-1.804 1.767 0 .975.81 1.768 1.804 1.768.996 0 1.806-.793 1.806-1.768 0-.974-.81-1.767-1.806-1.767Zm0 2.555c-.454 0-.823-.352-.823-.788 0-.432.37-.786.823-.786.454 0 .823.352.823.786.002.436-.369.788-.823.788Z"/></svg>