<svg width="29" height="28" viewBox="0 0 29 28" fill="none" xmlns="http://www.w3.org/2000/svg">
<path fill-rule="evenodd" clip-rule="evenodd" d="M14.5 0.25C6.90625 0.25 0.75 6.40625 0.75 14C0.75 21.5938 6.90625 27.75 14.5 27.75C22.0938 27.75 28.25 21.5938 28.25 14C28.25 6.40625 22.0938 0.25 14.5 0.25ZM20.46 11.675C20.5697 11.5496 20.6533 11.4034 20.7057 11.2452C20.7582 11.087 20.7784 10.9199 20.7653 10.7537C20.7522 10.5876 20.706 10.4257 20.6295 10.2777C20.5529 10.1296 20.4475 9.99838 20.3194 9.89168C20.1914 9.78497 20.0433 9.70495 19.8839 9.65633C19.7244 9.6077 19.5569 9.59145 19.3911 9.60853C19.2253 9.62562 19.0646 9.67568 18.9184 9.75579C18.7723 9.8359 18.6436 9.94443 18.54 10.075L13.165 16.5238L10.3837 13.7413C10.148 13.5136 9.83224 13.3876 9.5045 13.3904C9.17675 13.3933 8.86324 13.5247 8.63148 13.7565C8.39972 13.9882 8.26826 14.3018 8.26541 14.6295C8.26256 14.9572 8.38855 15.273 8.61625 15.5087L12.3663 19.2588C12.4891 19.3815 12.6361 19.4773 12.798 19.5401C12.9599 19.6028 13.1331 19.6312 13.3066 19.6233C13.4801 19.6154 13.65 19.5715 13.8055 19.4943C13.9611 19.4171 14.0988 19.3084 14.21 19.175L20.46 11.675Z" fill="#2CAA39"/>
</svg>
