<svg width="25" height="29" viewBox="0 0 25 29" fill="none" xmlns="http://www.w3.org/2000/svg">
<path d="M0.5 24.2019C0.526044 22.3637 1.32715 20.6089 2.72999 19.3172C4.13283 18.0256 6.02462 17.3009 7.99606 17.2999H17.0039C18.9754 17.3009 20.8672 18.0256 22.27 19.3172C23.6729 20.6089 24.474 22.3637 24.5 24.2019C21.2074 26.9688 16.9323 28.5 12.5 28.5C8.06773 28.5 3.79262 26.9688 0.5 24.2019ZM19.2559 6.79998C19.2559 8.04599 18.8597 9.26403 18.1173 10.3001C17.375 11.3361 16.3199 12.1436 15.0854 12.6204C13.8509 13.0972 12.4925 13.222 11.182 12.9789C9.87147 12.7358 8.66768 12.1358 7.72285 11.2547C6.77802 10.3737 6.13458 9.25112 5.8739 8.02904C5.61322 6.80696 5.74701 5.54025 6.25835 4.38908C6.76969 3.23791 7.63561 2.25399 8.74662 1.56174C9.85762 0.869487 11.1638 0.5 12.5 0.5C14.2918 0.5 16.0102 1.16375 17.2772 2.34522C18.5441 3.5267 19.2559 5.12912 19.2559 6.79998Z" fill="black"/>
</svg>
